<svg width="695" height="597" viewBox="0 0 695 597" fill="none" xmlns="http://www.w3.org/2000/svg">
<path d="M24.5 512H575.5C587.926 512 598 522.074 598 534.5C598 546.926 587.926 557 575.5 557H139.097V567.605C139.097 583.287 126.385 596 110.703 596C95.0207 596 82.308 583.287 82.308 567.605V557H24.5C12.0736 557 2 546.926 2 534.5C2 522.074 12.0736 512 24.5 512Z" fill="#E6882A"/>
<path d="M82.308 557H24.5C12.0736 557 2 546.926 2 534.5V534.5C2 522.074 12.0736 512 24.5 512H575.5C587.926 512 598 522.074 598 534.5V534.5C598 546.926 587.926 557 575.5 557H139.097M82.308 557V567.605C82.308 583.287 95.0207 596 110.703 596V596C126.385 596 139.097 583.287 139.097 567.605V557M82.308 557H139.097" stroke="#444444" stroke-width="2"/>
<path d="M575.5 512H24.5C12.0736 512 2 522.074 2 534.5C2 546.926 12.0736 557 24.5001 557H460.903V567.605C460.903 583.287 473.615 596 489.297 596C504.979 596 517.692 583.287 517.692 567.605V557H575.5C587.926 557 598 546.926 598 534.5C598 522.074 587.926 512 575.5 512Z" fill="#E6882A"/>
<path d="M517.692 557H575.5C587.926 557 598 546.926 598 534.5V534.5C598 522.074 587.926 512 575.5 512H24.5C12.0736 512 2 522.074 2 534.5V534.5C2 546.926 12.0736 557 24.5 557H460.903M517.692 557V567.605C517.692 583.287 504.979 596 489.297 596V596C473.615 596 460.903 583.287 460.903 567.605V557M517.692 557H460.903" stroke="#444444" stroke-width="2"/>
<path d="M692 1.5H138.5L2 528H598L692 1.5Z" fill="#E5882A" stroke="#444444" stroke-width="2"/>
<path d="M45.75 527.5L175.75 1.5" stroke="#444444" stroke-width="2"/>
<path d="M569 527.5L677 85.5" stroke="#444444" stroke-width="2"/>
<path d="M526.5 528L658.5 2" stroke="#444444" stroke-width="2"/>
<path d="M483.5 528L614.5 2" stroke="#444444" stroke-width="2"/>
<path d="M438.75 526.5L568.75 1.5" stroke="#444444" stroke-width="2"/>
<path d="M394.25 527.5L523.25 1.5" stroke="#444444" stroke-width="2"/>
<path d="M349.75 527.5L479.75 1.5" stroke="#444444" stroke-width="2"/>
<path d="M311.75 526.5L441.75 1.5" stroke="#444444" stroke-width="2"/>
<path d="M271.75 527.5L401.75 1.5" stroke="#444444" stroke-width="2"/>
<path d="M229.75 527.5L359.75 1.5" stroke="#444444" stroke-width="2"/>
<path d="M185.75 528L315.75 2" stroke="#444444" stroke-width="2"/>
<path d="M136.75 527.5L266.75 1.5" stroke="#444444" stroke-width="2"/>
<path d="M89.75 528L219.75 2" stroke="#444444" stroke-width="2"/>
<path d="M694 44.0159V3.5L596.5 544.5L694 44.0159Z" fill="#E5882A" stroke="#444444" stroke-width="2"/>
<path d="M514.176 413.492C485.434 443.584 400.958 361.738 253.745 270.96C163.311 182.6 117.172 126.466 142.041 56.4854C225.693 39.4587 267.393 73.6296 357.826 161.989C469.432 313.483 542.917 383.401 514.176 413.492Z" fill="#2B4F9D"/>
<ellipse cx="233.356" cy="99.7141" rx="12.8544" ry="12.5011" fill="black"/>
<path d="M140.903 68.7113C140.903 85.0323 149.978 94.2136 163.645 94.2136" stroke="black" stroke-width="16" stroke-linecap="round"/>
<path d="M167.106 168.97C182.179 168.97 195.734 169.127 210.219 164.357C226.567 158.974 246.077 151.926 258.471 139.39C270.261 127.465 283.277 119.259 288.729 102.714" stroke="black" stroke-opacity="0.8" stroke-width="16" stroke-linecap="round"/>
<path d="M190.258 201.023C195.816 202.822 200.086 205.785 206.104 205.785C212.718 205.785 221.204 204.58 225.763 198.981C230.54 193.115 232.64 189.493 232.64 181.971" stroke="black" stroke-opacity="0.8" stroke-width="16" stroke-linecap="round"/>
<path d="M242.058 174.487C245.56 181.176 255.642 182.958 262.24 180.61C265.783 179.35 269.174 176.74 272.181 174.487C274.34 172.869 275.238 169.942 277.19 168.363C282.31 164.219 282.422 156.071 282.422 149.992" stroke="black" stroke-opacity="0.8" stroke-width="16" stroke-linecap="round"/>
<path d="M289.822 141.146C292.18 143.531 296.328 145.141 299.576 145.872C303.9 146.843 307.077 145.07 310.938 143.868C316.239 142.218 314.04 128.361 314.04 124.136" stroke="black" stroke-opacity="0.8" stroke-width="16" stroke-linecap="round"/>
<path d="M406.042 370.438C409.154 371.685 411.545 373.739 414.915 373.739C418.618 373.739 423.37 372.903 425.923 369.024C428.597 364.959 429.773 362.449 429.773 357.237" stroke="black" stroke-opacity="0.8" stroke-width="16" stroke-linecap="round"/>
<path d="M434.717 351.901C436.69 356.452 442.371 357.665 446.089 356.068C448.085 355.21 449.995 353.434 451.69 351.901C452.906 350.801 453.412 348.809 454.512 347.735C457.397 344.915 457.46 339.371 457.46 335.235" stroke="black" stroke-opacity="0.8" stroke-width="16" stroke-linecap="round"/>
<path d="M461.415 329.211C462.691 330.89 464.936 332.024 466.693 332.538C469.033 333.222 470.752 331.973 472.841 331.127C475.709 329.965 474.519 320.209 474.519 317.234" stroke="black" stroke-opacity="0.8" stroke-width="16" stroke-linecap="round"/>
<path d="M359.923 336.477C363.748 337.761 366.687 339.877 370.829 339.877C375.381 339.877 381.222 339.017 384.36 335.02C387.647 330.832 389.093 328.246 389.093 322.876" stroke="black" stroke-opacity="0.8" stroke-width="16" stroke-linecap="round"/>
<path d="M396.014 317.203C398.416 322.072 405.331 323.369 409.857 321.66C412.287 320.742 414.613 318.843 416.676 317.203C418.157 316.026 418.773 313.895 420.112 312.745C423.624 309.73 423.701 303.799 423.701 299.374" stroke="black" stroke-opacity="0.8" stroke-width="16" stroke-linecap="round"/>
<path d="M428.645 292.622C430.298 294.41 433.208 295.616 435.486 296.164C438.519 296.892 440.747 295.563 443.456 294.662C447.174 293.426 445.631 283.039 445.631 279.872" stroke="black" stroke-opacity="0.8" stroke-width="16" stroke-linecap="round"/>
<path d="M314.438 307.475C318.653 308.759 321.89 310.875 326.454 310.875C331.468 310.875 337.903 310.014 341.36 306.017C344.982 301.829 346.574 299.243 346.574 293.873" stroke="black" stroke-opacity="0.8" stroke-width="16" stroke-linecap="round"/>
<path d="M354.484 287.3C357.487 293.016 366.131 294.539 371.788 292.533C374.826 291.455 377.733 289.226 380.312 287.3C382.163 285.919 382.933 283.418 384.606 282.068C388.997 278.528 389.092 271.565 389.092 266.371" stroke="black" stroke-opacity="0.8" stroke-width="16" stroke-linecap="round"/>
<path d="M395.52 259.051C397.504 261.109 400.996 262.499 403.73 263.129C407.369 263.968 410.043 262.437 413.293 261.4C417.755 259.976 415.904 248.016 415.904 244.369" stroke="black" stroke-opacity="0.8" stroke-width="16" stroke-linecap="round"/>
<path d="M273.402 280.772C278.654 282.51 282.689 285.373 288.376 285.373C294.625 285.373 302.644 284.208 306.951 278.801C311.464 273.134 313.449 269.636 313.449 262.371" stroke="black" stroke-opacity="0.8" stroke-width="16" stroke-linecap="round"/>
<path d="M321.854 254.898C325.156 261.46 334.665 263.209 340.888 260.905C344.23 259.668 347.428 257.108 350.265 254.898C352.3 253.311 353.147 250.44 354.988 248.89C359.818 244.825 359.923 236.832 359.923 230.868" stroke="black" stroke-opacity="0.8" stroke-width="16" stroke-linecap="round"/>
<path d="M366.844 223.388C368.971 225.284 372.712 226.564 375.641 227.145C379.54 227.917 382.405 226.507 385.887 225.552C390.668 224.241 388.685 213.225 388.685 209.866" stroke="black" stroke-opacity="0.8" stroke-width="16" stroke-linecap="round"/>
<path d="M239.783 251.607C245.341 253.406 249.611 256.37 255.63 256.37C262.243 256.37 270.73 255.164 275.288 249.566C280.065 243.699 282.165 240.077 282.165 232.556" stroke="black" stroke-opacity="0.8" stroke-width="16" stroke-linecap="round"/>
<path d="M291.583 225.071C295.085 231.761 305.167 233.543 311.765 231.195C315.308 229.934 318.699 227.325 321.707 225.071C323.865 223.454 324.763 220.527 326.715 218.947C331.836 214.804 331.947 206.656 331.947 200.576" stroke="black" stroke-opacity="0.8" stroke-width="16" stroke-linecap="round"/>
<path d="M339.347 191.731C341.705 194.116 345.854 195.726 349.102 196.456C353.426 197.428 356.602 195.654 360.463 194.453C365.764 192.803 363.565 178.946 363.565 174.721" stroke="black" stroke-opacity="0.8" stroke-width="16" stroke-linecap="round"/>
<path d="M211.603 223.105C217.161 224.904 221.431 227.868 227.449 227.868C234.062 227.868 242.549 226.662 247.108 221.063C251.885 215.197 253.985 211.575 253.985 204.053" stroke="black" stroke-opacity="0.8" stroke-width="16" stroke-linecap="round"/>
<path d="M263.403 196.569C266.904 203.258 276.986 205.04 283.585 202.692C287.127 201.432 290.518 198.822 293.526 196.569C295.685 194.951 296.582 192.024 298.534 190.445C303.655 186.301 303.767 178.153 303.767 172.074" stroke="black" stroke-opacity="0.8" stroke-width="16" stroke-linecap="round"/>
<path d="M311.167 163.229C313.524 165.613 317.673 167.224 320.921 167.954C325.245 168.925 328.422 167.152 332.283 165.95C337.584 164.3 335.385 150.443 335.385 146.218" stroke="black" stroke-opacity="0.8" stroke-width="16" stroke-linecap="round"/>
<path d="M237.862 77.7583C244.125 78.3341 251.49 85.615 253.03 91.5884C254.289 96.4685 254.232 101.071 254.232 106.141" stroke="black" stroke-opacity="0.8" stroke-width="16" stroke-linecap="round"/>
<path d="M254.338 100.461L252.806 103.719L255.522 106.446L251.86 105.732L250.329 108.99L249.597 105.291L245.934 104.578L249.144 103.006L248.412 99.3067L251.128 102.034L254.338 100.461Z" fill="#F2EC3D"/>
<path d="M252.126 111.218L251.219 113.048L252.668 114.503L250.659 114.178L249.752 116.008L249.417 113.978L247.407 113.654L249.21 112.723L248.875 110.693L250.324 112.148L252.126 111.218Z" fill="#F2EC3D"/>
<path d="M260.528 106.717L259.393 109.005L261.204 110.823L258.692 110.419L257.558 112.706L257.14 110.169L254.628 109.764L256.881 108.6L256.463 106.063L258.274 107.881L260.528 106.717Z" fill="#F2EC3D"/>
<g filter="url(#filter0_dd_21_185)">
<path d="M464.864 461.103L462.013 399.59C461.706 392.961 464.707 386.611 470.024 382.64L487.501 369.587C491.464 366.626 496.385 365.24 501.311 365.696L569.61 372.013C587.396 373.658 594.269 396.02 580.477 407.37L497.552 475.619C484.835 486.085 465.627 477.555 464.864 461.103Z" fill="#172165"/>
</g>
<path d="M470.174 384.24L510.715 464.497" stroke="black" stroke-width="3"/>
<path d="M490.444 368.988L599.213 390.99" stroke="black" stroke-width="3"/>
<path d="M464.736 387.24L484.512 485.999" stroke="black" stroke-width="3"/>
<path d="M481.298 374.489L569.302 416.492" stroke="black" stroke-width="3"/>
<path d="M475.365 380.739L539.39 440.995" stroke="black" stroke-width="3"/>
<defs>
<filter id="filter0_dd_21_185" x="457.992" y="365.611" width="133.803" height="122.598" filterUnits="userSpaceOnUse" color-interpolation-filters="sRGB">
<feFlood flood-opacity="0" result="BackgroundImageFix"/>
<feColorMatrix in="SourceAlpha" type="matrix" values="0 0 0 0 0 0 0 0 0 0 0 0 0 0 0 0 0 0 127 0" result="hardAlpha"/>
<feOffset dy="4"/>
<feGaussianBlur stdDeviation="2"/>
<feComposite in2="hardAlpha" operator="out"/>
<feColorMatrix type="matrix" values="0 0 0 0 0 0 0 0 0 0 0 0 0 0 0 0 0 0 0.25 0"/>
<feBlend mode="normal" in2="BackgroundImageFix" result="effect1_dropShadow_21_185"/>
<feColorMatrix in="SourceAlpha" type="matrix" values="0 0 0 0 0 0 0 0 0 0 0 0 0 0 0 0 0 0 127 0" result="hardAlpha"/>
<feOffset dy="4"/>
<feGaussianBlur stdDeviation="2"/>
<feComposite in2="hardAlpha" operator="out"/>
<feColorMatrix type="matrix" values="0 0 0 0 0 0 0 0 0 0 0 0 0 0 0 0 0 0 0.25 0"/>
<feBlend mode="normal" in2="effect1_dropShadow_21_185" result="effect2_dropShadow_21_185"/>
<feBlend mode="normal" in="SourceGraphic" in2="effect2_dropShadow_21_185" result="shape"/>
</filter>
</defs>
</svg>
