<svg width="1877" height="2408" viewBox="0 0 1877 2408" fill="none" xmlns="http://www.w3.org/2000/svg">
<path d="M494.186 2313.82L568.049 2393.66C574.44 2400.57 584.783 2402.09 592.89 2397.31L632.413 2374C635.733 2372.04 638.417 2369.17 640.141 2365.72L679 2288L712.422 2238.34C713.469 2236.79 714.729 2235.39 716.166 2234.18L800.5 2163.5L907.5 2080.5L1111.5 1907.5L1284.5 1738L1459.31 1515.15C1460.43 1513.72 1461.35 1512.15 1462.05 1510.48L1553.94 1289.35C1554.31 1288.45 1554.75 1287.58 1555.25 1286.74L1719.47 1012.72C1720.15 1011.58 1720.72 1010.36 1721.17 1009.1L1803.5 776L1868.62 564.374C1869.2 562.469 1869.5 560.486 1869.5 558.493V379.391C1869.5 376.178 1868.73 373.012 1867.24 370.161L1782.78 207.804C1780.66 203.726 1777.2 200.504 1772.98 198.679L1626.13 135.154C1622.15 133.431 1617.72 133.05 1613.5 134.068L1433.5 177.5L1288.91 224.563C1286.01 225.509 1283.36 227.106 1281.17 229.233L1165.82 341.244C1164.28 342.738 1163 344.47 1162.01 346.373L1070 523.5L945.309 767.51C935.749 786.218 907.5 779.419 907.5 758.409V427.272C907.5 424.456 906.905 421.671 905.754 419.101L846.703 287.187C845.905 285.405 844.851 283.75 843.574 282.273L716.02 134.835C714.681 133.288 713.113 131.955 711.37 130.883L581.344 50.9409C579.789 49.9848 578.11 49.2461 576.354 48.7454L437.725 9.20511C434.942 8.41117 432.019 8.2309 429.159 8.67677L305.078 28.0202C303.038 28.3382 301.06 28.9699 299.214 29.893L222.749 68.1254C220.277 69.3617 218.087 71.0972 216.319 73.2223L168.04 131.25C167.348 132.082 166.724 132.969 166.176 133.901L112 226L58.145 309.936C57.0546 311.636 56.2279 313.49 55.6929 315.437L8.71484 486.399C8.24043 488.125 8 489.907 8 491.698V942V1081.66C8 1083.21 8.18163 1084.76 8.54119 1086.28L91 1433.5L200.885 1784.04C201.294 1785.34 201.836 1786.6 202.502 1787.8L385 2115L491.311 2309.82C492.101 2311.27 493.066 2312.61 494.186 2313.82Z" fill="#E93232" stroke="#E93232" stroke-width="15"/>
</svg>
